<svg width="80" height="80" viewBox="0 0 80 80" fill="none" xmlns="http://www.w3.org/2000/svg">
<circle cx="40" cy="40" r="40" fill="#D9D9D9"/>
<path d="M31.0773 32V20.288H32.4373L36.8533 27.872L38.1333 30.272H38.2133C38.1333 29.12 38.0213 27.84 38.0213 26.64V20.288H39.2853V32H37.9253L33.5093 24.416L32.2293 22.032H32.1653C32.2293 23.184 32.3253 24.384 32.3253 25.6V32H31.0773ZM45.7457 32.224C43.6337 32.224 41.7617 30.56 41.7617 27.696C41.7617 24.816 43.6337 23.152 45.7457 23.152C47.8577 23.152 49.7137 24.816 49.7137 27.696C49.7137 30.56 47.8577 32.224 45.7457 32.224ZM45.7457 31.12C47.2977 31.12 48.3697 29.744 48.3697 27.696C48.3697 25.632 47.2977 24.24 45.7457 24.24C44.1777 24.24 43.1217 25.632 43.1217 27.696C43.1217 29.744 44.1777 31.12 45.7457 31.12ZM18.7961 55V43.288H20.1081V55H18.7961ZM23.2618 55V46.36H24.3338L24.4618 47.64H24.4938C25.2618 46.808 26.1738 46.152 27.1978 46.152C28.5418 46.152 29.2458 46.792 29.5818 47.832C30.5098 46.824 31.4218 46.152 32.4618 46.152C34.2218 46.152 35.0698 47.304 35.0698 49.512V55H33.7738V49.688C33.7738 48.024 33.2298 47.288 32.0778 47.288C31.3898 47.288 30.6538 47.752 29.8058 48.68V55H28.5258V49.688C28.5258 48.024 27.9818 47.288 26.8298 47.288C26.1418 47.288 25.3898 47.752 24.5578 48.68V55H23.2618ZM39.9486 55.224C38.5246 55.224 37.4206 54.36 37.4206 52.776C37.4206 50.888 39.0686 49.96 42.7806 49.544C42.7966 48.376 42.4446 47.24 40.9566 47.24C39.9166 47.24 38.9886 47.736 38.3166 48.184L37.8046 47.272C38.5566 46.776 39.7566 46.152 41.1486 46.152C43.2606 46.152 44.0926 47.576 44.0926 49.64V55H43.0206L42.9086 53.96H42.8446C42.0126 54.648 41.0366 55.224 39.9486 55.224ZM40.2846 54.152C41.1646 54.152 41.9006 53.736 42.7806 52.952V50.44C39.7246 50.776 38.7006 51.528 38.7006 52.696C38.7006 53.752 39.4046 54.152 40.2846 54.152ZM49.7984 59.032C47.6704 59.032 46.2304 58.168 46.2304 56.696C46.2304 55.96 46.7104 55.224 47.5104 54.712V54.632C47.0624 54.36 46.7264 53.912 46.7264 53.224C46.7264 52.504 47.2384 51.928 47.6864 51.624V51.56C47.1264 51.096 46.5664 50.264 46.5664 49.224C46.5664 47.352 48.0224 46.152 49.7504 46.152C50.2464 46.152 50.6624 46.248 50.9664 46.36H53.9424V47.384H52.1344C52.5664 47.8 52.8864 48.472 52.8864 49.256C52.8864 51.08 51.5104 52.264 49.7504 52.264C49.3184 52.264 48.8224 52.152 48.4384 51.96C48.1184 52.232 47.8464 52.536 47.8464 53.032C47.8464 53.608 48.1984 54.024 49.3984 54.024H51.1264C53.1104 54.024 54.0864 54.648 54.0864 56.056C54.0864 57.64 52.4224 59.032 49.7984 59.032ZM49.7504 51.368C50.8064 51.368 51.6864 50.52 51.6864 49.224C51.6864 47.912 50.8224 47.112 49.7504 47.112C48.6944 47.112 47.8304 47.896 47.8304 49.224C47.8304 50.52 48.7104 51.368 49.7504 51.368ZM49.9584 58.104C51.7024 58.104 52.8224 57.192 52.8224 56.248C52.8224 55.4 52.1824 55.112 51.0144 55.112H49.4304C49.1424 55.112 48.7264 55.08 48.3104 54.968C47.6544 55.432 47.3824 55.992 47.3824 56.52C47.3824 57.48 48.3424 58.104 49.9584 58.104ZM58.9987 55.224C56.7107 55.224 54.8867 53.544 54.8867 50.696C54.8867 47.88 56.7747 46.152 58.7427 46.152C60.9187 46.152 62.1667 47.704 62.1667 50.2C62.1667 50.472 62.1347 50.76 62.1027 50.984H56.1827C56.2627 52.888 57.4307 54.168 59.1427 54.168C60.0067 54.168 60.6947 53.896 61.3347 53.464L61.8147 54.344C61.0787 54.824 60.1827 55.224 58.9987 55.224ZM56.1667 50.024H60.9987C60.9987 48.184 60.1667 47.208 58.7587 47.208C57.4947 47.208 56.3587 48.232 56.1667 50.024Z" fill="black"/>
</svg>
